<?xml version="1.0" encoding="UTF-8"?>
<svg version="1.1" xmlns="http://www.w3.org/2000/svg" width="1080" height="1080">
<path d="M0 0 C356.4 0 712.8 0 1080 0 C1080 356.4 1080 712.8 1080 1080 C723.6 1080 367.2 1080 0 1080 C0 723.6 0 367.2 0 0 Z " fill="#2966F3" transform="translate(0,0)"/>
<path d="M0 0 C6.5403286 3.24617149 13.13023498 6.38244036 19.73802185 9.48876953 C24.7079033 11.83830842 29.63025413 14.27454139 34.54344177 16.73974609 C41.84284392 20.40199754 49.1760296 23.98958447 56.52720642 27.54656982 C60.28771096 29.36632788 64.0465424 31.18953305 67.80516052 33.01318359 C69.00817307 33.5968721 69.00817307 33.5968721 70.23548889 34.19235229 C79.57958789 38.72926625 88.90737321 43.29949306 98.23652649 47.86703491 C117.87645146 57.48467638 117.87645146 57.48467638 137.58982849 66.95043945 C146.95203318 71.40462224 156.27067252 75.94809371 165.59346008 80.48400879 C175.2556542 85.18462693 184.92899902 89.85982227 194.62156677 94.49755859 C197.51782921 95.88858501 200.41345567 97.28091982 203.30857849 98.67431641 C205.02220882 99.49719041 206.73731717 100.31699552 208.4540863 101.13330078 C210.70221873 102.20340263 212.9438262 103.28605631 215.18406677 104.37255859 C215.81014832 104.66654541 216.43622986 104.96053223 217.08128357 105.26342773 C221.16498191 107.26667592 224.27168711 109.21673511 226.93406677 112.93505859 C228.47684184 120.50529926 225.79945971 127.52084847 223.24656677 134.56005859 C222.50699618 136.67940077 221.76871688 138.79919399 221.03172302 140.91943359 C220.67094666 141.94488281 220.31017029 142.97033203 219.9384613 144.02685547 C218.19483659 149.07548394 216.67068852 154.18677561 215.13719177 159.30224609 C214.20003754 162.13196504 213.18474523 164.83676567 212.05906677 167.59130859 C209.66100325 173.49242569 207.66897263 179.50977148 205.68406677 185.56005859 C205.13879333 187.20941406 205.13879333 187.20941406 204.58250427 188.89208984 C203.69691055 191.57217611 202.8141547 194.25316037 201.93406677 196.93505859 C202.68349548 196.96946045 203.43292419 197.0038623 204.20506287 197.03930664 C225.83741818 198.08666208 247.22635357 200.31432319 268.70887756 203.0322876 C273.3477076 203.6188017 277.98842017 204.17355563 282.63479614 204.69676208 C290.9968299 205.64355935 299.27114555 206.90014266 307.55906677 208.37255859 C308.81453308 208.59210205 310.06999939 208.81164551 311.36351013 209.0378418 C318.88512285 210.36311784 326.3805081 211.77161963 333.85984802 213.31787109 C337.9113521 214.13126073 341.98011612 214.80289809 346.05906677 215.46240234 C350.69525458 216.2246017 355.31420626 217.08020251 359.93406677 217.93505859 C360.39236646 225.11508705 358.82229385 230.85095436 355.05906677 236.99755859 C349.20479032 240.62720999 341.90870364 239.47972458 335.32469177 238.27416992 C332.16189182 237.51855147 329.01811034 236.71828707 325.88191223 235.85903931 C322.37254205 234.90070822 318.84730448 234.00339524 315.32469177 233.09521484 C314.25718941 232.81779701 314.25718941 232.81779701 313.16812134 232.53477478 C291.04300017 226.79872616 268.71098942 223.01093586 246.05284119 220.19934082 C244.04473032 219.94886205 242.03769941 219.68976915 240.03074646 219.43017578 C221.17407599 217.06513506 202.42190291 216.62990213 183.43406677 216.56005859 C182.30455597 216.55211273 181.17504517 216.54416687 180.01130676 216.53598022 C163.76532726 216.44807468 148.01531414 217.6741125 131.93406677 219.93505859 C129.28832757 220.28942818 126.64217033 220.64050941 123.99591064 220.9909668 C68.97505618 228.58520944 17.26310771 253.66962344 -23.29640198 291.38818359 C-25.51205224 293.42570683 -27.75832199 295.37988274 -30.06593323 297.31005859 C-38.15386746 304.3150895 -45.21063481 312.74678548 -52.06593323 320.93505859 C-55.08710308 319.57245612 -57.27368585 318.0152736 -59.67530823 315.73974609 C-60.34368713 315.11003906 -61.01206604 314.48033203 -61.70069885 313.83154297 C-62.3987262 313.16445313 -63.09675354 312.49736328 -63.81593323 311.81005859 C-64.53458557 311.13007812 -65.25323792 310.45009766 -65.9936676 309.74951172 C-70.18840914 305.7681267 -74.30764111 301.72267918 -78.37062073 297.60693359 C-80.72594653 295.2841699 -83.19049586 293.11358846 -85.70265198 290.96240234 C-87.51397977 289.40855255 -89.30328483 287.83814044 -91.08546448 286.25146484 C-114.85575753 265.25332917 -143.26706325 247.86005517 -173.06593323 236.93505859 C-174.20868713 236.49806641 -174.20868713 236.49806641 -175.37452698 236.05224609 C-177.26522376 235.32944451 -179.1655083 234.63188107 -181.06593323 233.93505859 C-181.837276 233.63752686 -182.60861877 233.33999512 -183.40333557 233.03344727 C-190.31579088 230.41731515 -197.24258674 228.52343388 -204.44093323 226.87255859 C-205.55089661 226.61434326 -206.66085999 226.35612793 -207.80445862 226.09008789 C-209.96520849 225.58751771 -212.12640149 225.08684771 -214.2881012 224.58837891 C-216.42086167 224.08677344 -218.54456609 223.54653617 -220.66358948 222.98974609 C-243.79038236 216.9456049 -268.76999505 216.75537241 -292.54176331 216.8046875 C-295.65468594 216.81010428 -298.76746776 216.8046793 -301.88038635 216.79833984 C-303.88103771 216.7989998 -305.88168898 216.80027924 -307.88233948 216.80224609 C-309.26214745 216.79920975 -309.26214745 216.79920975 -310.66983032 216.79611206 C-315.57174007 216.81389741 -320.2139893 217.15111196 -325.06593323 217.93505859 C-326.83635136 218.08795907 -328.60869489 218.22030216 -330.38233948 218.32958984 C-353.59789551 219.87291269 -376.64580451 222.67463052 -399.43946838 227.39208984 C-402.28537102 227.98042294 -405.13445411 228.55165613 -407.98390198 229.12255859 C-428.54837026 232.39673073 -428.54837026 232.39673073 -448.06593323 238.93505859 C-460.43620318 240.17365343 -460.43620318 240.17365343 -465.19093323 236.56005859 C-466.17921448 234.92333984 -466.17921448 234.92333984 -467.06593323 232.93505859 C-467.45136292 232.10361328 -467.8367926 231.27216797 -468.23390198 230.41552734 C-471.06593323 223.81389818 -471.06593323 223.81389818 -471.06593323 219.93505859 C-454.3590473 214.66510129 -437.31861849 210.42707022 -419.89112854 208.43237305 C-415.96167818 207.92150437 -412.08408418 207.23237187 -408.19093323 206.50537109 C-399.47456706 204.92852906 -390.74811921 203.85280902 -381.94093323 202.93505859 C-381.16688141 202.85267944 -380.39282959 202.77030029 -379.59532166 202.6854248 C-366.70600179 201.31779352 -353.80086835 200.18864711 -340.87843323 199.18505859 C-339.63933197 199.08765381 -339.63933197 199.08765381 -338.37519836 198.98828125 C-329.92957554 198.33099818 -321.54430201 197.76463912 -313.06593323 197.93505859 C-313.25478088 197.25604492 -313.44362854 196.57703125 -313.63819885 195.87744141 C-315.13014365 190.5008507 -316.5103666 185.10991302 -317.81593323 179.68505859 C-319.74972612 171.74745675 -322.14965055 163.96780905 -324.56227112 156.16479492 C-326.34580372 150.37398554 -328.00351364 144.59252583 -329.37843323 138.68896484 C-330.21101341 135.35391353 -331.24161616 132.09495081 -332.25343323 128.81005859 C-335.41455176 117.62266253 -335.41455176 117.62266253 -334.06593323 111.93505859 C-329.83692246 106.63241516 -323.33330438 103.76420039 -317.34718323 100.92333984 C-316.42069977 100.47336639 -315.49421631 100.02339294 -314.53965759 99.55978394 C-311.55315839 98.11231502 -308.55976118 96.67979866 -305.56593323 95.24755859 C-303.49665015 94.24821556 -301.4278036 93.24796813 -299.35939026 92.24682617 C-293.60108341 89.4632825 -287.83454708 86.69716232 -282.06593323 83.93505859 C-280.80118949 83.32816079 -279.53652627 82.72109514 -278.27198792 82.11376953 C-273.79057198 79.96251812 -269.30507684 77.82012878 -264.81593323 75.68505859 C-257.17039235 72.04009143 -249.55784802 68.32685027 -241.94093323 64.62255859 C-230.90503538 59.25640774 -219.86689162 53.89513926 -208.81593323 48.56005859 C-207.63732727 47.99101807 -206.45872131 47.42197754 -205.24440002 46.83569336 C-199.74070873 44.18114394 -194.23345004 41.53442649 -188.71827698 38.90380859 C-187.70861877 38.42218262 -186.69896057 37.94055664 -185.65870667 37.44433594 C-183.83066461 36.57332766 -182.00197991 35.70366558 -180.17237854 34.8359375 C-175.02941685 32.38742759 -169.92244956 29.87265879 -164.83155823 27.31787109 C-147.19965434 18.47069507 -129.44102154 9.87555481 -111.71150208 1.22625732 C-109.35169753 0.07452898 -106.99257563 -1.0785794 -104.63380432 -2.23242188 C-101.19785074 -3.91266482 -97.75759714 -5.58392143 -94.31593323 -7.25244141 C-92.93933533 -7.92678223 -92.93933533 -7.92678223 -91.53492737 -8.61474609 C-86.32164194 -11.1283385 -81.06350675 -13.25183279 -75.60011292 -15.16381836 C-73.85849383 -15.78311663 -72.13163155 -16.44504015 -70.41944885 -17.14160156 C-46.23328318 -26.63040639 -20.89677863 -10.37828818 0 0 Z " fill="#E6E7E8" transform="translate(595.0659332275391,482.06494140625)"/>
<path d="M0 0 C0.75055664 0.1551709 1.50111328 0.3103418 2.27441406 0.47021484 C7.22065406 1.51641179 12.11057442 2.71461006 17 4 C18.05832031 4.27328125 19.11664063 4.5465625 20.20703125 4.828125 C36.74983721 9.50003426 52.29953292 17.20467104 67 26 C65 27 65 27 62.9609375 26.36328125 C62.10757812 26.01652344 61.25421875 25.66976562 60.375 25.3125 C53.81614669 22.83489953 47.13513933 21.14463823 40.32080078 19.54736328 C37.87584808 18.97071864 35.43624176 18.3739695 32.99609375 17.77734375 C19.55727026 14.55197659 6.06217552 12.31455289 -7.62182617 10.40136719 C-10 10 -10 10 -13 9 C-15.63354013 8.76240847 -18.24347772 8.581132 -20.8828125 8.44921875 C-21.70838654 8.40737961 -22.53396057 8.36554047 -23.384552 8.32243347 C-34.60378776 7.81403218 -45.83138505 7.81397554 -57.06005859 7.81469727 C-60.86176713 7.81250762 -64.66318605 7.79426897 -68.46484375 7.77539062 C-88.94762947 7.72616077 -108.70803756 9.32621947 -128.875 12.8125 C-129.64714844 12.94383331 -130.41929687 13.07516663 -131.21484375 13.21047974 C-153.75434708 17.04773534 -175.85769719 22.34492499 -198 28 C-192.91773072 27.4676751 -187.83554167 26.93459195 -182.75341797 26.40087891 C-181.03338645 26.2203443 -179.31333513 26.03999826 -177.59326172 25.85986328 C-175.08555629 25.59720718 -172.57792056 25.33389647 -170.0703125 25.0703125 C-169.22478821 24.98162903 -168.37926392 24.89294556 -167.50811768 24.80157471 C-163.52643992 24.38166447 -159.54646483 23.95234996 -155.56933594 23.49121094 C-134.79750448 21.08332869 -114.23221534 19.64272871 -93.3125 19.75 C-92.22504486 19.75310181 -91.13758972 19.75620361 -90.0171814 19.75939941 C-72.94018377 19.81628367 -55.99643063 20.21103155 -39 22 C-37.78006348 22.12358887 -36.56012695 22.24717773 -35.30322266 22.37451172 C-20.35509965 23.94010795 -5.71102516 26.24734434 8.9375 29.5625 C9.59248474 29.71020844 10.24746948 29.85791687 10.92230225 30.01010132 C17.82969377 31.58530834 24.42449212 33.36521461 31 36 C32.94928924 36.53425487 34.905305 37.00723525 36.87109375 37.4765625 C43.37228221 39.07501985 49.52906308 41.08513557 55.59765625 43.91601562 C57.92616756 44.96668536 60.27203458 45.91336733 62.65234375 46.83984375 C89.64854665 57.58120323 114.31550278 72.6812097 136 92 C136.78697266 92.69440186 136.78697266 92.69440186 137.58984375 93.40283203 C142.75424023 97.9721865 147.7467394 102.57186339 152.25 107.8125 C157.82718731 114.26725716 164.78000646 120.31835687 173.56640625 121.28125 C182.68580239 121.58565265 189.67355279 119.45095064 197 114 C199.05432262 111.90013393 200.89902638 109.6542369 202.75 107.375 C210.99800833 97.51300029 219.86311597 88.92648015 230 81 C230.86625 80.30519531 231.7325 79.61039063 232.625 78.89453125 C257.86037669 59.21523892 286.63241488 46.50602569 317 37 C317.93811523 36.70399902 318.87623047 36.40799805 319.84277344 36.10302734 C382.26684311 16.78905278 448.14822967 17.2900331 512.5 24 C513.30359955 24.08358765 514.1071991 24.16717529 514.93515015 24.2532959 C522.91467085 25.0943819 530.79830309 26.08391611 538.68017578 27.61621094 C542.06653723 28.1764467 545.25495376 28.19297121 548.6875 28.125 C549.88761719 28.10695313 551.08773437 28.08890625 552.32421875 28.0703125 C553.20722656 28.04710937 554.09023438 28.02390625 555 28 C547.57127308 24.96613061 539.89467311 23.0028994 532.125 21.0625 C531.41892609 20.88569702 530.71285217 20.70889404 529.98538208 20.5267334 C516.42227634 17.15621705 502.8591009 14.81096456 489 13 C487.03559457 12.73096778 485.07119469 12.46189191 483.10700989 12.19125366 C479.69744558 11.72337036 476.28628708 11.26762165 472.875 10.8125 C471.63097412 10.64524414 470.38694824 10.47798828 469.10522461 10.30566406 C451.93382401 8.0929429 434.91379782 7.79371446 417.625 7.8125 C416.51239807 7.81343658 415.39979614 7.81437317 414.253479 7.81533813 C374.35195971 7.88817863 335.51857913 12.54936115 297.29711914 24.43945312 C293.54965112 25.60109488 289.88446162 26.44507691 286 27 C287.60928758 23.78142483 290.9397936 22.83322319 294.0625 21.3125 C295.14724609 20.78076172 295.14724609 20.78076172 296.25390625 20.23828125 C298.49742651 19.14768112 300.74721117 18.07130852 303 17 C303.63921387 16.69368652 304.27842773 16.38737305 304.93701172 16.07177734 C323.75337657 7.15035416 343.44548983 1.19720954 364 -2 C365.07636719 -2.19335938 366.15273438 -2.38671875 367.26171875 -2.5859375 C398.21095625 -6.01396172 430.28870553 -0.85350541 461 3 C461.81237122 3.10159424 462.62474243 3.20318848 463.46173096 3.30786133 C499.31820883 7.7939389 499.31820883 7.7939389 515.1015625 10.13671875 C519.30066922 10.75974757 523.50382556 11.34737412 527.70935059 11.92498779 C549.29950168 14.89859837 570.58369758 18.44720379 591.82666016 23.33911133 C595.20459304 24.04260912 598.58040324 24.54565364 602 25 C601.48161136 29.87285322 600.37129468 34.12104922 598.7578125 38.7421875 C597.62630675 42.11337473 596.81873947 45.5423482 596 49 C595.62681699 50.50045308 595.25185998 52.00046622 594.875 53.5 C594.58625 54.655 594.2975 55.81 594 57 C600.29304541 59.14328358 606.62267685 61.12275039 613 63 C613.52421861 70.99433379 612.39663175 78.76923965 607.234375 85.19921875 C602.07307907 89.35893452 596.56345672 89.28729674 590.25 89.1875 C589.15751953 89.1865332 589.15751953 89.1865332 588.04296875 89.18554688 C583.36580578 89.15040959 578.71215543 88.9310309 574.0442028 88.63805866 C563.83329284 88.00872727 553.65765393 87.83664021 543.4296875 87.83203125 C541.69361344 87.82879901 539.95753963 87.82543367 538.22146606 87.82194519 C534.60287855 87.81601234 530.98431468 87.8140989 527.36572266 87.81469727 C523.7302548 87.814778 520.09491438 87.80791027 516.45947266 87.79418945 C475.79922792 87.64314153 435.63744305 90.15975138 395.375 96 C394.50191193 96.12556274 393.62882385 96.25112549 392.72927856 96.38049316 C383.72257478 97.68519911 374.86638186 99.1489272 366.02001953 101.31811523 C362.88676413 102.02556732 359.77326296 102.51970887 356.59375 102.97265625 C349.44494786 104.01339983 342.50426382 105.68829095 335.5 107.4375 C333.05224083 108.04100372 330.60432502 108.64387252 328.15625 109.24609375 C326.96531738 109.54056396 325.77438477 109.83503418 324.54736328 110.13842773 C321.08768854 110.97870249 317.62073643 111.77622874 314.1484375 112.5625 C309.07908986 113.72521911 304.0963519 115.03743711 299.125 116.5625 C298.30241699 116.81225586 297.47983398 117.06201172 296.63232422 117.31933594 C285.4236179 120.75160876 274.27179792 124.36593762 263.13011169 128.0088501 C259.01326354 129.35250905 254.88925426 130.67061499 250.75799561 131.9692688 C248.04635147 132.8245511 245.33933034 133.6938774 242.63299561 134.5657959 C240.74938154 135.16772509 238.86034959 135.75261786 236.97119141 136.33691406 C230.22235158 138.52820519 224.91968345 141.10010401 219.25415039 145.36987305 C216.00010855 147.7230884 212.57083699 149.28306044 208.875 150.8125 C208.22402344 151.09802734 207.57304688 151.38355469 206.90234375 151.67773438 C184.88593053 161.07285725 160.68696146 156.34142246 139.19482422 147.89794922 C133.88767362 145.74411887 128.65519969 143.44110695 123.43554688 141.08447266 C119.59332576 139.37365207 115.70620974 137.77684902 111.8125 136.1875 C111.1124585 135.90092529 110.41241699 135.61435059 109.69116211 135.3190918 C107.79491917 134.54407371 105.89750083 133.77193324 104 133 C103.04738281 132.61070312 102.09476562 132.22140625 101.11328125 131.8203125 C96.09291041 129.78694409 91.02787078 127.90705581 85.93505859 126.0637207 C84.08492761 125.39319827 82.23610073 124.71905594 80.38916016 124.03979492 C66.04112588 118.77316082 51.59538686 114.56134619 36.75439453 110.92382812 C33.42997108 110.10580118 30.1102273 109.2718162 26.79144287 108.43136597 C12.068236 104.70949958 -2.5519635 101.1653607 -17.64868164 99.30786133 C-20.44368005 98.94190836 -23.22623005 98.51448842 -26.01171875 98.08203125 C-46.92673551 94.83831602 -67.85499678 91.85278299 -88.9765625 90.33984375 C-89.87773489 90.27521439 -90.77890728 90.21058502 -91.70738792 90.14399719 C-110.17981705 88.87544871 -128.63900512 88.76159354 -147.14453125 88.8125 C-147.86702757 88.81445523 -148.58952389 88.81641046 -149.33391404 88.81842494 C-159.73372919 88.84909362 -170.13329313 88.91316872 -180.53289795 88.98439026 C-191.13838924 89.05701213 -201.74379971 89.12532247 -212.34949225 89.16025448 C-216.57772837 89.17506034 -220.80552122 89.20439013 -225.03357947 89.24554443 C-228.25386071 89.27322086 -231.47420658 89.28147629 -234.69458008 89.29296875 C-235.84393539 89.30846771 -236.99329071 89.32396667 -238.17747498 89.3399353 C-244.24292356 89.34113964 -248.67014783 88.99056793 -254 86 C-256.8360049 83.13323583 -257.92790817 79.91825357 -259.1875 76.125 C-259.53167969 75.11695313 -259.87585938 74.10890625 -260.23046875 73.0703125 C-261.01935313 69.92278397 -261.13983087 67.23057521 -261 64 C-258.04380781 62.8278551 -255.08471211 61.66322524 -252.125 60.5 C-251.28324219 60.16613281 -250.44148438 59.83226562 -249.57421875 59.48828125 C-248.76855469 59.17246094 -247.96289062 58.85664062 -247.1328125 58.53125 C-246.38918457 58.23798828 -245.64555664 57.94472656 -244.87939453 57.64257812 C-243 57 -243 57 -241 57 C-241.48919922 55.36804688 -241.48919922 55.36804688 -241.98828125 53.703125 C-249 30.18045888 -249 30.18045888 -249 25 C-236.55290218 21.94113052 -236.55290218 21.94113052 -231.6875 21.5625 C-227.40557666 21.18468324 -223.33646594 20.1403418 -219.1875 19.0625 C-212.49137766 17.32983977 -205.84486463 16.02150154 -199 15 C-196.66007645 14.6339755 -194.32086831 14.26357485 -191.98168945 13.89282227 C-190.38800517 13.64056078 -188.79410905 13.38963195 -187.19995117 13.14038086 C-182.98569611 12.4805438 -178.77878116 11.79034608 -174.57470703 11.06835938 C-167.70261189 9.92215911 -160.80844893 9.00925118 -153.8984375 8.125 C-152.56863522 7.95343618 -151.23885253 7.78172051 -149.90908813 7.60986328 C-147.13765021 7.25217552 -144.36602293 6.89600629 -141.59423828 6.54101562 C-138.09787028 6.09314715 -134.60194701 5.64191213 -131.10614491 5.18965054 C-116.75069573 3.33351382 -102.39431529 1.53075376 -88 0 C-86.25112926 -0.19769582 -84.50239884 -0.39664342 -82.75390625 -0.59765625 C-55.51043997 -3.66266373 -26.97761519 -5.64744027 0 0 Z " fill="#E5E6E8" transform="translate(364,730)"/>
<path d="M0 0 C11.41968454 5.13885804 22.76565005 10.25056494 34 15.75 C43.70543443 20.47497125 53.4489693 25.10081805 63.25 29.625 C73.07215664 34.15893374 82.84336372 38.78547051 92.58496094 43.48974609 C100.18885964 47.15287702 107.83543171 50.7158304 115.5 54.25 C126.60310948 59.37355778 137.61456702 64.66752398 148.60552979 70.02664185 C159.29042809 75.23381948 170.02911758 80.30157231 180.82421875 85.27734375 C189.86682441 89.45244396 198.84178552 93.75743409 207.80419922 98.1015625 C217.53417904 102.80560215 227.33037927 107.35948711 237.15429688 111.86328125 C238.26869141 112.37632812 239.38308594 112.889375 240.53125 113.41796875 C241.51673828 113.86938232 242.50222656 114.3207959 243.51757812 114.78588867 C246 116 246 116 249 118 C247.89678777 123.69992985 246.37865478 128.72409771 244.13671875 134.06640625 C242.74332492 137.66241577 241.61997807 141.31144177 240.5 145 C238.91092867 150.20381824 237.20995424 155.27305409 235.09765625 160.29296875 C234.19746317 162.51301788 233.36515802 164.73357944 232.55859375 166.98828125 C232.30134521 167.70048828 232.04409668 168.41269531 231.77905273 169.14648438 C231.27235578 170.55526388 230.77276926 171.96662805 230.28149414 173.38085938 C228.45531073 178.4160408 226.54909189 182.4889167 221.83203125 185.28515625 C217.78517258 186.3066392 213.84694883 186.34321298 209.6875 186.4375 C134.07079273 189.21849974 68.71801672 221.52656058 12.26171875 270.203125 C11.71950684 270.66654297 11.17729492 271.12996094 10.61865234 271.60742188 C9.52138831 272.55143304 8.4333735 273.50628271 7.35400391 274.47070312 C3.32708114 278 3.32708114 278 0 278 C0 186.26 0 94.52 0 0 Z " fill="#2966F3" transform="translate(550,489)"/>
<path d="M0 0 C2.74482075 1.38388461 5.41780066 2.8777651 8.08791161 4.39996529 C11.41038823 6.25746955 14.82872379 7.91383191 18.24489784 9.59060097 C19.63827812 10.28442804 21.03115945 10.97925796 22.423563 11.67504311 C23.13046083 12.02768101 23.83735867 12.38031891 24.56567764 12.74364281 C29.24872424 15.08027864 33.9309568 17.41854535 38.613204 19.75678253 C42.67642749 21.78578889 46.74002455 23.81403967 50.80446815 25.84060097 C67.08497858 33.95878719 83.35347293 42.07537729 99.40929604 50.63216591 C103.27561625 52.67505458 107.19661719 54.60750832 111.12063026 56.53640175 C119.35441499 60.62116584 127.51160241 64.83442653 135.62063026 69.16140175 C138.53486872 70.71365934 141.46694023 72.21102206 144.43313026 73.66140175 C151.50185434 77.16366394 157.30437351 80.29919771 161.12063026 87.53640175 C161.46624001 88.10624794 161.81184975 88.67609413 162.16793251 89.26320839 C163.40441532 92.21352973 163.3580194 94.56913502 163.34426308 97.7668705 C163.34476662 99.02918495 163.34527016 100.2914994 163.34578896 101.59206581 C163.34186386 102.26467445 163.33793877 102.9372831 163.33389473 103.63027382 C163.32362307 105.75119767 163.32908549 107.87153774 163.33931923 109.99245644 C163.36719736 116.02169338 163.38000746 122.05060731 163.35061073 128.07985878 C163.33373086 131.77421911 163.34643373 135.4675404 163.37706184 139.16179848 C163.38310591 140.55858375 163.37845921 141.95546359 163.36218452 143.35216713 C163.23699289 154.57534856 165.45964027 163.70043083 173.18313026 172.16140175 C181.83071417 180.00722291 191.6470059 186.73969328 201.12063026 193.53640175 C200.79063026 194.85640175 200.46063026 196.17640175 200.12063026 197.53640175 C195.3358875 196.94907503 191.27549728 195.51975784 186.91750526 193.54421425 C185.8813105 193.08234215 185.8813105 193.08234215 184.82418251 192.6111393 C177.08122694 189.12599857 169.46174188 185.38526485 161.84649086 181.63140297 C149.35663937 175.47692315 136.8376222 169.4079487 124.18313026 163.59890175 C114.71178223 159.25009137 105.36855232 154.70267153 96.07204628 149.99270058 C88.66174452 146.25758225 81.16679084 142.73794051 73.62063026 139.28640175 C63.13432082 134.48968477 52.79728669 129.4838147 42.54348183 124.21120644 C24.029377 114.70466399 7.38825978 107.10495319 -13.81686974 107.22390175 C-14.87446495 107.2295414 -15.93206017 107.23518105 -17.02170372 107.24099159 C-24.37003958 107.35558774 -30.95099161 107.94072732 -37.87936974 110.53640175 C-38.96991661 110.92698769 -40.06046349 111.31757362 -41.18405724 111.7199955 C-55.62897068 117.20284974 -69.45206197 124.27649368 -83.23654747 131.22219276 C-100.12299248 139.7038077 -117.17446399 147.89133572 -134.41257286 155.63332558 C-140.57013133 158.41468439 -146.61968887 161.37713541 -152.65453148 164.41254616 C-159.94817839 168.08109619 -167.2825036 171.6633263 -174.62936974 175.22390175 C-175.3279409 175.56246193 -176.02651207 175.90102211 -176.74625206 176.24984169 C-186.36939177 180.90913204 -196.00849048 185.53432126 -205.69345665 190.06389809 C-207.45833647 190.88985827 -209.2211292 191.72027347 -210.98386192 192.55080605 C-216.22430893 194.98623484 -221.25003025 197.197619 -226.87936974 198.53640175 C-227.53936974 197.54640175 -228.19936974 196.55640175 -228.87936974 195.53640175 C-220.64334894 188.18754075 -212.22146028 181.395888 -203.09860802 175.1665287 C-202.37657188 174.66339149 -201.65453575 174.16025429 -200.91061974 173.6418705 C-200.27704552 173.21027626 -199.6434713 172.77868202 -198.99069786 172.33400917 C-198.29395958 171.74079872 -197.5972213 171.14758827 -196.87936974 170.53640175 C-196.36363396 170.15339912 -195.84789818 169.7703965 -195.31653404 169.37578773 C-191.60848635 166.04329071 -190.52987199 163.05515426 -190.22668839 158.07648182 C-190.12441673 154.27953443 -190.16329712 150.49010042 -190.21530724 146.69265175 C-190.21421221 145.03790216 -190.20989762 143.38315186 -190.20252037 141.72841835 C-190.18914743 137.38417596 -190.20788914 133.04076402 -190.23697472 128.69661903 C-190.28243202 121.74484212 -190.29789053 114.79351335 -190.27742958 107.84162331 C-190.27780078 105.42225032 -190.30350285 103.00405751 -190.33112144 100.58486366 C-190.33180674 99.09149626 -190.33150244 97.59812798 -190.33005333 96.10476112 C-190.3438755 94.16119728 -190.3438755 94.16119728 -190.35797691 92.17836952 C-189.68398838 87.0496447 -187.76810199 83.25665338 -183.87595177 79.71169472 C-178.3340038 76.28206233 -172.68317649 73.36407013 -166.75436974 70.66140175 C-159.29925524 67.18980147 -152.00285104 63.55424569 -144.78149986 59.62276649 C-141.19678228 57.69108492 -137.5666108 55.85888378 -133.91672325 54.05397987 C-127.17235394 50.69969326 -120.45847291 47.28828079 -113.7541256 43.85476112 C-103.73600061 38.72518559 -93.70432612 33.62289402 -83.66270161 28.53947639 C-77.62196196 25.48037566 -71.58742908 22.4100233 -65.56564903 19.3137455 C-59.69310613 16.29425977 -53.80490174 13.30698439 -47.90644073 10.33835793 C-45.67775265 9.21024935 -43.45433372 8.07166279 -41.23665237 6.92206764 C-14.66617836 -6.83263704 -14.66617836 -6.83263704 0 0 Z " fill="#E5E6E8" transform="translate(563.8793697357178,343.4635982513428)"/>
<path d="M0 0 C1.31846194 0.59979472 2.63806317 1.19709079 3.95874023 1.79199219 C6.60870114 2.98869787 9.25298374 4.19670135 11.89306641 5.41503906 C17.12057092 7.82088587 22.40329335 10.09708475 27.6875 12.375 C29.3243232 13.08830204 30.96104044 13.80184725 32.59765625 14.515625 C36.14785067 16.05840653 39.70370355 17.58736739 43.26367188 19.10742188 C54.6657262 23.97687713 66.02907748 28.92516148 77.36157227 33.95428467 C94.53547659 41.57463858 111.73965751 49.12313147 128.97412109 56.60546875 C136.12607558 59.71265458 143.26682741 62.83236179 150.34570312 66.10400391 C152.74744358 67.1798478 155.17556229 68.16334078 157.625 69.125 C157.625 70.115 157.625 71.105 157.625 72.125 C144.99168338 77.57823019 132.32780001 82.95889276 119.65045166 88.30883789 C117.98393082 89.01238784 116.31770516 89.71663747 114.65179443 90.42163086 C105.87761467 94.1336738 97.10578355 97.78707394 88.17236328 101.10229492 C83.26507581 103.07245279 79.44586779 105.52253149 76.625 110.125 C75.65258055 113.04225834 75.47332181 115.01303439 75.41967773 118.05541992 C75.39973251 119.05623093 75.37978729 120.05704193 75.35923767 121.08818054 C75.34252518 122.16638565 75.32581268 123.24459076 75.30859375 124.35546875 C75.2774221 126.01380486 75.2774221 126.01380486 75.24562073 127.7056427 C75.18017668 131.2411979 75.12126397 134.77682806 75.0625 138.3125 C75.0193099 140.70769008 74.97569546 143.10287255 74.93164062 145.49804688 C74.82450052 151.37361842 74.72272443 157.24926472 74.625 163.125 C71.55511196 161.65362624 68.8998913 159.93165127 66.16162109 157.90185547 C34.50171301 134.45505297 -2.96474616 121.9214232 -42.63671875 127.78125 C-46.98438002 128.58954366 -51.17125829 129.76318321 -55.375 131.125 C-56.12716797 131.36105957 -56.87933594 131.59711914 -57.65429688 131.84033203 C-77.74184454 138.28280234 -96.33062265 148.49884423 -112.6328125 161.875 C-114.375 163.125 -114.375 163.125 -116.375 163.125 C-116.38086624 162.51414047 -116.38673248 161.90328094 -116.39277649 161.27391052 C-116.45686577 154.89804537 -116.54132546 148.52267772 -116.63745117 142.1472168 C-116.67064115 139.77000501 -116.69869141 137.39271554 -116.72143555 135.01538086 C-116.75508986 131.59194942 -116.80741301 128.16922604 -116.86328125 124.74609375 C-116.86967117 123.68853378 -116.8760611 122.63097382 -116.88264465 121.54136658 C-116.99907626 115.65625396 -117.48166066 111.2980583 -120.375 106.125 C-125.00750921 102.13218478 -130.46502948 100.49687609 -136.1875 98.625 C-137.90364199 98.05598396 -139.61850059 97.4830821 -141.33203125 96.90625 C-142.08460205 96.65939453 -142.83717285 96.41253906 -143.61254883 96.15820312 C-147.61383985 94.66165309 -151.48548641 92.88878948 -155.375 91.125 C-155.35867502 98.3845992 -155.30372163 105.64318372 -155.22241211 112.90234375 C-155.19927232 115.36972473 -155.18484589 117.83720393 -155.17944336 120.3046875 C-155.17012501 123.85999472 -155.12906703 127.41376568 -155.08203125 130.96875 C-155.0859639 132.06489624 -155.08989655 133.16104248 -155.09394836 134.29040527 C-154.97791509 140.43656975 -154.32359879 144.44068313 -150.50874329 149.35871887 C-148.35650423 152.71173473 -148.65278457 156.44656635 -148.75 160.3125 C-148.73066406 161.09302734 -148.71132813 161.87355469 -148.69140625 162.67773438 C-148.72760424 166.94547763 -149.00519856 168.6550696 -151.7265625 172.11328125 C-156.57408746 175.79539829 -161.5029906 175.75112204 -167.375 175.125 C-172.17520674 173.66028435 -175.55191146 172.35963281 -178.375 168.125 C-179.33716118 160.66825084 -177.23804863 155.87581359 -173.8828125 149.23828125 C-171.12068332 143.53512851 -170.12456339 138.94041659 -170.14453125 132.5859375 C-170.14426437 131.8708905 -170.1439975 131.15584351 -170.14372253 130.41912842 C-170.1465481 128.11252716 -170.16524454 125.80649087 -170.1875 123.5 C-170.19354248 122.71687439 -170.19958496 121.93374878 -170.20581055 121.12689209 C-170.23670076 117.21396492 -170.27834692 113.30137001 -170.33056641 109.38867188 C-170.3755672 105.77377555 -170.3582038 102.16196289 -170.32421875 98.546875 C-170.33833526 96.78122529 -170.35497146 95.01559254 -170.375 93.25 C-170.35542236 92.47446777 -170.33584473 91.69893555 -170.31567383 90.89990234 C-170.39667846 87.97506826 -170.70422838 85.77705293 -172.85351562 83.68774414 C-174.96439583 82.2973328 -177.08723486 81.20017534 -179.375 80.125 C-180.2103125 79.72087891 -181.045625 79.31675781 -181.90625 78.90039062 C-184.5453399 77.66135362 -187.20331054 76.47942251 -189.875 75.3125 C-190.7928125 74.90580078 -191.710625 74.49910156 -192.65625 74.08007812 C-194.8935076 73.08962554 -197.13303512 72.10473865 -199.375 71.125 C-199.375 70.465 -199.375 69.805 -199.375 69.125 C-198.76954346 68.85985596 -198.16408691 68.59471191 -197.5402832 68.3215332 C-184.96096709 62.80890546 -172.4025542 57.25432144 -159.875 51.625 C-150.4912202 47.41007605 -141.09946017 43.21416993 -131.6875 39.0625 C-130.69105469 38.62164062 -129.69460938 38.18078125 -128.66796875 37.7265625 C-124.30366901 35.80603278 -119.93393262 33.93192789 -115.49609375 32.1875 C-109.27969192 29.72805512 -103.21302333 26.94618096 -97.125 24.1875 C-86.51313044 19.40003535 -75.86935733 14.69169587 -65.1875 10.0625 C-64.56315063 9.79132355 -63.93880127 9.52014709 -63.29553223 9.24075317 C-56.74671866 6.3979304 -50.18188238 3.63031816 -43.5402832 1.01196289 C-39.38931739 -0.68839327 -35.37915523 -2.72313799 -31.35546875 -4.703125 C-20.16195581 -8.72277822 -10.17434097 -4.8004987 0 0 Z " fill="#E6E6E8" transform="translate(561.375,198.875)"/>
<path d="M0 0 C1.12230011 -0.00295074 2.24460022 -0.00590149 3.40090942 -0.00894165 C19.53249609 -0.01848351 35.50280539 0.59426323 51.5625 2.125 C52.43469177 2.20777191 53.30688354 2.29054382 54.20550537 2.37582397 C72.55211495 4.16163624 90.76606181 6.60632862 108.75 10.6875 C110.14501304 11.00100545 111.54003268 11.31448151 112.93505859 11.62792969 C115.64336982 12.23959464 118.3498095 12.85868249 121.0546875 13.48535156 C123.17838045 13.97735592 125.30304334 14.46524862 127.4296875 14.94433594 C160.35886344 22.41734067 205.65181052 37.10717621 226.625 65.3125 C219.30063525 63.03176782 212.42353336 60.09354331 205.4375 56.9375 C196.5971342 52.99209542 187.81016103 49.3786257 178.625 46.3125 C177.28875681 45.82032939 175.95500899 45.32127683 174.625 44.8125 C174.00882812 44.58175781 173.39265625 44.35101562 172.7578125 44.11328125 C171.10422071 43.49242719 169.45378769 42.86315677 167.8046875 42.23046875 C156.9431029 38.18626172 145.83069342 35.23590805 134.625 32.3125 C133.90554199 32.12300781 133.18608398 31.93351563 132.44482422 31.73828125 C93.10651774 21.41622007 53.10311753 15.63460024 12.625 12.3125 C11.46307129 12.21243652 10.30114258 12.11237305 9.10400391 12.00927734 C-3.3339523 11.07373034 -15.78457308 11.16165265 -28.25146484 11.18212891 C-32.07523676 11.187431 -35.89888817 11.18218787 -39.72265625 11.17578125 C-52.39060753 11.17190651 -65.04217952 11.32054559 -77.703125 11.7578125 C-78.8462616 11.79655487 -79.98939819 11.83529724 -81.16717529 11.87521362 C-87.28484554 12.10977022 -93.29780984 12.57781934 -99.375 13.3125 C-101.22834407 13.3715237 -103.08340019 13.40111408 -104.9375 13.375 C-106.20787109 13.36146484 -106.20787109 13.36146484 -107.50390625 13.34765625 C-108.12136719 13.33605469 -108.73882812 13.32445312 -109.375 13.3125 C-109.045 12.6525 -108.715 11.9925 -108.375 11.3125 C-106.28393555 10.67407227 -106.28393555 10.67407227 -103.51171875 10.12890625 C-102.48981445 9.92499268 -101.46791016 9.7210791 -100.41503906 9.51098633 C-99.30870117 9.30111084 -98.20236328 9.09123535 -97.0625 8.875 C-95.9290918 8.65545654 -94.79568359 8.43591309 -93.62792969 8.2097168 C-62.59379928 2.29108347 -31.56417619 0.07372833 0 0 Z " fill="#2F6AF3" transform="translate(271.375,772.6875)"/>
<path d="M0 0 C1.14034698 -0.00100708 2.28069397 -0.00201416 3.45559692 -0.00305176 C32.40376921 0.01413252 60.61482805 2.54517229 89.22412109 6.81982422 C91.88236293 7.2057051 94.54056008 7.5556479 97.20703125 7.87890625 C98.27570435 8.00930298 98.27570435 8.00930298 99.3659668 8.14233398 C101.12103585 8.35211459 102.87688257 8.55536411 104.6328125 8.7578125 C107.1875 9.25 107.1875 9.25 110.1875 11.25 C108.31519966 11.24666908 108.31519966 11.24666908 106.40507507 11.24327087 C94.56449811 11.22288058 82.72392478 11.20795202 70.88333416 11.19818783 C64.79794767 11.19299901 58.71257551 11.18597526 52.62719727 11.17456055 C46.73976821 11.16358794 40.85235282 11.15769314 34.96491432 11.15512276 C32.73379108 11.15329413 30.50266846 11.1497242 28.27155113 11.14426994 C8.84972728 11.09873714 -10.27087319 11.87455053 -29.5625 14.125 C-31.13938277 14.30552671 -32.7162874 14.48586251 -34.29321289 14.66601562 C-38.11796868 15.10540699 -41.94160683 15.5536664 -45.76470947 16.00720215 C-47.62729777 16.22804136 -49.49014869 16.44666272 -51.35302734 16.66503906 C-64.96994531 18.27743034 -78.37996009 20.5032094 -91.8125 23.25 C-92.6163916 23.41113281 -93.4202832 23.57226562 -94.24853516 23.73828125 C-112.04896464 27.3077988 -129.57535699 31.57705163 -146.82128906 37.26904297 C-149.67814487 38.20593871 -152.54030567 39.1252549 -155.40380859 40.04159546 C-176.43365789 46.78702479 -197.31325127 53.96238847 -216.83618164 64.43408203 C-217.81445923 64.83796143 -217.81445923 64.83796143 -218.8125 65.25 C-219.4725 64.92 -220.1325 64.59 -220.8125 64.25 C-193.303904 33.76571453 -148.79598349 21.11048846 -110.0625 12.25 C-108.91579834 11.98727295 -107.76909668 11.7245459 -106.58764648 11.45385742 C-85.15069066 6.57196419 -63.75083571 2.8810762 -41.8125 1.25 C-40.6376001 1.16169922 -39.4627002 1.07339844 -38.25219727 0.98242188 C-25.51067283 0.0951062 -12.76824091 0.00787755 0 0 Z " fill="#2F6AF3" transform="translate(802.8125,772.75)"/>
<path d="M0 0 C5.55097281 1.11107375 10.57720341 3.75518919 15.65380859 6.18115234 C16.81589844 6.71160156 17.97798828 7.24205078 19.17529297 7.78857422 C24.84265691 10.44464185 29.30979229 12.68498734 33.46630859 17.49365234 C34.74904851 23.37287698 32.83553403 27.50823059 30.27880859 32.80615234 C29.98780273 33.4170874 29.69679688 34.02802246 29.39697266 34.6574707 C27.36496169 38.58700531 25.59606681 40.83816316 21.46630859 42.49365234 C16.34689322 42.83819906 12.88174283 42.17442834 8.23583984 40.04443359 C7.10339844 39.52558594 5.97095703 39.00673828 4.80419922 38.47216797 C3.64082031 37.92238281 2.47744141 37.37259766 1.27880859 36.80615234 C-0.48366211 36.01047852 -0.48366211 36.01047852 -2.28173828 35.19873047 C-8.635853 32.24121848 -13.27841401 30.00420713 -16.53369141 23.49365234 C-17.03667149 18.36029681 -15.76937099 15.32825394 -13.28369141 10.86865234 C-12.68041016 9.76263672 -12.07712891 8.65662109 -11.45556641 7.51708984 C-8.28537238 2.52983339 -6.37203551 -0.33801161 0 0 Z " fill="#2B67F3" transform="translate(574.53369140625,385.50634765625)"/>
<path d="M0 0 C2.93159509 2.43471456 4.54154511 5.16562634 6.1796875 8.5390625 C6.48414795 9.16353271 6.7886084 9.78800293 7.10229492 10.43139648 C9.0914316 14.79646205 9.98377145 18.21350441 9.35546875 22.94921875 C5.72963621 29.72912124 -2.35973694 32.2859585 -9.0078125 35.1640625 C-11.00467344 36.04252898 -13.0008093 36.92264615 -14.99609375 37.8046875 C-15.87434814 38.18657227 -16.75260254 38.56845703 -17.6574707 38.96191406 C-19.64377201 39.74875351 -19.64377201 39.74875351 -20.6953125 40.9140625 C-22.5859375 41.1875 -22.5859375 41.1875 -24.9453125 41.2890625 C-25.71359375 41.33804688 -26.481875 41.38703125 -27.2734375 41.4375 C-30.92036866 40.6492923 -32.33149017 38.73762337 -34.6953125 35.9140625 C-36.49609375 32.79296875 -36.49609375 32.79296875 -38.0078125 29.4765625 C-38.51957031 28.38472656 -39.03132813 27.29289062 -39.55859375 26.16796875 C-40.77979989 22.67221373 -41.28801222 20.57145348 -40.6953125 16.9140625 C-36.77084187 10.0236325 -29.81117928 7.66757194 -22.8203125 4.5390625 C-21.66144531 3.99378906 -20.50257813 3.44851563 -19.30859375 2.88671875 C-6.89022003 -2.77605967 -6.89022003 -2.77605967 0 0 Z " fill="#2B67F3" transform="translate(530.6953125,387.0859375)"/>
<path d="M0 0 C2.43490778 0.02366594 4.86871623 0.02051956 7.30371094 0.01391602 C20.476636 0.03651564 33.70810076 0.79062372 46.43652344 4.46118164 C47.17507568 4.67073486 47.91362793 4.88028809 48.67456055 5.09619141 C59.7816562 8.44004669 71.40857576 13.97312821 80.43652344 21.33618164 C80.76652344 21.99618164 81.09652344 22.65618164 81.43652344 23.33618164 C74.14836215 21.54687258 66.88206599 19.68102279 59.62402344 17.77368164 C58.82440186 17.56396729 58.02478027 17.35425293 57.20092773 17.13818359 C56.426604 16.93410889 55.65228027 16.73003418 54.85449219 16.51977539 C54.09475098 16.32029297 53.33500977 16.12081055 52.55224609 15.9152832 C50.7408816 15.41948854 48.94750253 14.85877208 47.15917969 14.28540039 C11.98525135 5.31660229 -25.44661051 9.90645745 -59.56347656 20.33618164 C-61.47332712 20.91011654 -63.38346506 21.48309634 -65.29394531 22.05493164 C-66.71713138 22.48198503 -68.14031209 22.90905629 -69.56347656 23.33618164 C-62.50188951 14.14698149 -52.4507714 9.68485165 -41.68847656 6.02368164 C-41.01921143 5.79358398 -40.34994629 5.56348633 -39.66040039 5.32641602 C-26.56654558 1.15205164 -13.66847123 -0.14140745 0 0 Z " fill="#316BF3" transform="translate(535.5634765625,265.663818359375)"/>
<path d="M0 0 C3.81420837 1.40473795 7.4940553 3.05625332 11.1875 4.75 C12.66379883 5.39582031 12.66379883 5.39582031 14.16992188 6.0546875 C23.56796628 10.32246021 23.56796628 10.32246021 26 15 C26.7974274 20.08703686 25.17875744 23.32108938 22.75 27.75 C22.14671875 28.87921875 21.5434375 30.0084375 20.921875 31.171875 C18.17675339 35.21144419 18.17675339 35.21144419 15 36 C8.71640438 35.77952296 3.50131236 33.3179919 -2.125 30.75 C-3.00542969 30.36714844 -3.88585937 29.98429687 -4.79296875 29.58984375 C-9.69176858 27.38058108 -13.62322548 25.33764532 -17 21 C-18.51856231 16.10486973 -17.1048252 11.60477428 -14.8125 7.1875 C-10.77268358 0.72605693 -7.64906437 -1.99758125 0 0 Z " fill="#2C68F3" transform="translate(680,435)"/>
<path d="M0 0 C4.04155296 3.49539716 6.43971203 8.91816823 8 14 C8 17.96272784 7.85747813 20.00287921 5.26098633 23.0222168 C1.25136957 26.52960319 -3.53988198 28.52009322 -8.3125 30.8125 C-9.33279297 31.32748047 -10.35308594 31.84246094 -11.40429688 32.37304688 C-20.95216885 36.9834285 -20.95216885 36.9834285 -27 35 C-29.1875 32.9375 -29.1875 32.9375 -31 30 C-31.55880859 29.11248047 -31.55880859 29.11248047 -32.12890625 28.20703125 C-34.63231061 23.83697696 -35.47578105 20.08621988 -35.62890625 15.078125 C-34.44628539 11.17033435 -31.17195129 9.6646735 -27.76586914 7.73291016 C-25.11985719 6.32582077 -22.4438829 5.00043732 -19.75 3.6875 C-18.84636719 3.22021484 -17.94273437 2.75292969 -17.01171875 2.27148438 C-11.1574971 -0.57981639 -6.3874671 -2.03530231 0 0 Z " fill="#2C68F3" transform="translate(428,436)"/>
<path d="M0 0 C4.83301501 0.73577791 8.97969114 2.85460656 13.32226562 5.01660156 C14.24136719 5.44328125 15.16046875 5.86996094 16.10742188 6.30957031 C21.5410648 8.94382556 25.24410884 11.29861842 28.57226562 16.39160156 C28.9548548 22.89561754 25.25926979 29.18489544 21.57226562 34.39160156 C18.32729007 36.74716198 15.49692274 36.61393803 11.57226562 36.39160156 C7.53945879 35.01666626 3.77377742 33.07180375 -0.05273438 31.20410156 C-1.08914063 30.72134766 -2.12554688 30.23859375 -3.19335938 29.74121094 C-12.81594165 25.11018781 -12.81594165 25.11018781 -15.42773438 20.39160156 C-15.55631357 13.83406237 -12.26791213 6.82040642 -8.09423828 1.78173828 C-5.47380302 -0.40413315 -3.30550911 -0.11642886 0 0 Z " fill="#2C68F3" transform="translate(628.427734375,412.6083984375)"/>
<path d="M0 0 C5.62614194 4.18689633 8.45079894 10.43019314 9.5 17.25 C8.81175344 21.0353561 7.75298635 22.23497435 5 25 C1.33002359 27.20273635 -2.4975997 29.00642237 -6.375 30.8125 C-7.91800781 31.56563477 -7.91800781 31.56563477 -9.4921875 32.33398438 C-14.58362575 34.7452003 -18.26210521 36.45089851 -24 36 C-29.83455788 33.01156791 -31.94065776 26.90177348 -34 21 C-34.6875 17.125 -34.6875 17.125 -34 14 C-29.19401534 9.25683867 -23.61206705 6.51624368 -17.5625 3.625 C-16.64662109 3.16222656 -15.73074219 2.69945312 -14.78710938 2.22265625 C-9.48276337 -0.32860852 -5.89806995 -1.79240048 0 0 Z " fill="#2C68F3" transform="translate(476,414)"/>
<path d="M0 0 C5.11230113 2.8455261 8.668436 6.66054223 10.7578125 12.15234375 C11.77477616 17.39554166 11.35812446 21.76836195 8.7578125 26.46484375 C5.27203758 31.27853292 1.20713747 34.42353476 -4.6640625 35.6640625 C-10.62020796 36.08025279 -14.60297914 34.49886213 -19.32421875 30.9140625 C-23.70081772 26.89400928 -25.43460844 23.22300489 -25.8671875 17.27734375 C-25.6074312 11.40147717 -23.162406 7.42025347 -19.2421875 3.15234375 C-13.87119756 -1.69592211 -6.72123384 -2.54095426 0 0 Z " fill="#2D69F3" transform="translate(474.2421875,549.84765625)"/>
<path d="M0 0 C5.13279389 2.79607449 9.080611 6.866833 10.9375 12.4375 C11.78208533 17.76159484 11.24093031 21.63859618 8.375 26.25 C5.43416332 30.1619967 2.71909468 33.06483689 -2.0625 34.4375 C-7.43895619 35.18205297 -11.61724695 35.17326519 -16.5 32.6875 C-17.345625 31.945 -18.19125 31.2025 -19.0625 30.4375 C-19.805 29.798125 -20.5475 29.15875 -21.3125 28.5 C-25.07195457 24.06921425 -25.56812661 19.6725303 -25.44140625 14.00390625 C-24.58485457 8.20231397 -21.45146821 4.5208952 -16.9375 1 C-11.21641359 -2.10928609 -6.0163258 -2.69697363 0 0 Z " fill="#2D68F3" transform="translate(346.0625,603.5625)"/>
<path d="M0 0 C4.92070998 2.68922522 9.11937105 6.94851053 10.875 12.375 C11.50842223 18.70922232 10.49865606 23.09783098 6.875 28.375 C1.39492199 33.58107411 -3.00608845 34.83377465 -10.43359375 34.6953125 C-14.2016444 34.24686525 -16.29974126 32.85571499 -19.125 30.375 C-19.8675 29.735625 -20.61 29.09625 -21.375 28.4375 C-25.13445457 24.00671425 -25.63062661 19.6100303 -25.50390625 13.94140625 C-24.64735457 8.13981397 -21.51396821 4.4583952 -17 0.9375 C-11.23389334 -2.19625362 -6.04078688 -2.7520409 0 0 Z " fill="#2C68F3" transform="translate(406.125,578.625)"/>
<path d="M0 0 C-0.99 0.33 -1.98 0.66 -3 1 C-1.68 1.66 -0.36 2.32 1 3 C-1.70784994 3.33772739 -4.41616996 3.67030687 -7.125 4 C-7.88554687 4.09539063 -8.64609375 4.19078125 -9.4296875 4.2890625 C-13.64909952 4.79830188 -17.74004344 5.10888068 -22 5 C-18.644661 2.76310733 -15.40369426 1.83264459 -11.5625 0.8125 C-10.55993164 0.52729492 -10.55993164 0.52729492 -9.53710938 0.23632812 C-6.06186139 -0.69706355 -3.41391321 -1.37080403 0 0 Z " fill="#4F80F1" transform="translate(185,754)"/>
<path d="M0 0 C0 0.33 0 0.66 0 1 C-6.38226945 1.82351864 -12.56744599 2.12086218 -19 2 C-18.67 1.34 -18.34 0.68 -18 0 C-12.12904893 -1.74541788 -5.98795149 -0.62980072 0 0 Z " fill="#6891F0" transform="translate(181,784)"/>
<path d="M0 0 C0.66 0.33 1.32 0.66 2 1 C1 4 1 4 -0.9609375 4.984375 C-1.75757813 5.23703125 -2.55421875 5.4896875 -3.375 5.75 C-4.56222656 6.14445313 -4.56222656 6.14445313 -5.7734375 6.546875 C-8 7 -8 7 -11 6 C-9.21385682 4.96953278 -7.42089982 3.95086764 -5.625 2.9375 C-4.62726562 2.36902344 -3.62953125 1.80054688 -2.6015625 1.21484375 C-1.74304688 0.81394531 -0.88453125 0.41304687 0 0 Z " fill="#C0CDEA" transform="translate(661,750)"/>
<path d="M0 0 C0.66 0.33 1.32 0.66 2 1 C0.35 2.65 -1.3 4.3 -3 6 C-2.67 6.66 -2.34 7.32 -2 8 C-3.96466413 9.06775224 -5.96855359 10.06553465 -8 11 C-8.66 10.67 -9.32 10.34 -10 10 C-6.7 6.7 -3.4 3.4 0 0 Z " fill="#4076F2" transform="translate(592,827)"/>
</svg>
